# WaveFront *.obj file (generated by Cinema 4D)

mtllib ./magic_table_block.mtl

v 0.48156502842903 0.46965610980988 -0.45549178123474
v 0.48162752389908 0.46965610980988 -0.45549178123474
v 0.48156502842903 -0.09284389019012 -0.45549178123474
v 0.48162752389908 -0.09284389019012 -0.45549178123474
v 0.48162752389908 0.46965610980988 0.54450821876526
v 0.48156502842903 0.46965610980988 0.54450821876526
v 0.48162752389908 -0.09284389019012 0.54450821876526
v 0.48156502842903 -0.09284389019012 0.54450821876526
# 8 vertices

vn 0 0 -1
vn 0 0 1
vn 0 1 0
vn 0 -1 0
vn -1 0 0
vn 1 0 0
# 6 normals

vt 0.0703125 1 0
vt 0 1 0
vt 0.25 1 0
vt 0.7265625 0.6328125 0
vt 0.4765625 0.5625 0
vt 0.4765625 0.6328125 0
vt 0.7265625 0.5625 0
# 7 texture coordinates

o cube_15.1
usemtl 0
f 2/1/1 3/2/1 1/1/1
f 2/1/1 4/2/1 3/2/1
f 6/2/2 7/1/2 5/2/2
f 6/2/2 8/1/2 7/1/2
f 2/2/3 6/3/3 5/3/3
f 2/2/3 1/2/3 6/3/3
f 3/3/4 7/2/4 8/2/4
f 3/3/4 4/3/4 7/2/4
f 1/4/5 8/5/5 6/6/5
f 1/4/5 3/7/5 8/5/5
f 5/6/6 4/7/6 2/4/6
f 5/6/6 7/5/6 4/7/6

v -0.51753979921341 0.45736029744148 -0.46220508217812
v -0.51747733354568 0.45736029744148 -0.46220508217812
v -0.51753979921341 -0.10513968765736 -0.46220508217812
v -0.51747733354568 -0.10513968765736 -0.46220508217812
v -0.51747733354568 0.45736029744148 0.53779494762421
v -0.51753979921341 0.45736029744148 0.53779494762421
v -0.51747733354568 -0.10513968765736 0.53779494762421
v -0.51753979921341 -0.10513968765736 0.53779494762421
# 8 vertices

# 0 normal

# 0 texture coordinate

o cube_15
usemtl 0
f 10/1/1 11/2/1 9/1/1
f 10/1/1 12/2/1 11/2/1
f 14/2/2 15/1/2 13/2/2
f 14/2/2 16/1/2 15/1/2
f 10/2/3 14/3/3 13/3/3
f 10/2/3 9/2/3 14/3/3
f 11/3/4 15/2/4 16/2/4
f 11/3/4 12/3/4 15/2/4
f 9/4/5 16/5/5 14/6/5
f 9/4/5 11/7/5 16/5/5
f 13/6/6 12/7/6 10/4/6
f 13/6/6 15/5/6 12/7/6

v -0.04636276513338 -0.41763970255852 0.27311840653419
v -0.26733362674713 -0.41763970255852 0.49408927559853
v -0.04636276513338 -0.5426396727562 0.27311840653419
v -0.26733362674713 -0.5426396727562 0.49408927559853
v -0.48830449581146 -0.41763970255852 0.27311840653419
v -0.26733362674713 -0.41763970255852 0.05214752629399
v -0.48830449581146 -0.5426396727562 0.27311840653419
v -0.26733362674713 -0.5426396727562 0.05214752629399
# 8 vertices

vn 0.70710676908493 0 0.70710676908493
vn -0.70710676908493 0 -0.70710676908493
vn 0.70710676908493 0 -0.70710676908493
vn -0.70710676908493 0 0.70710676908493
# 4 normals

vt 0.671875 0.09375 0
vt 0.6328125 0.078125 0
vt 0.6328125 0.09375 0
vt 0.671875 0.078125 0
vt 0.59375 0.078125 0
vt 0.59375 0.09375 0
vt 0.59375 0.1328125 0
vt 0.5546875 0.09375 0
vt 0.5546875 0.1328125 0
vt 0.5546875 0.0390625 0
vt 0.5546875 0.078125 0
vt 0.59375 0.0390625 0
vt 0.515625 0.078125 0
vt 0.515625 0.09375 0
# 14 texture coordinates

o cube
usemtl 0
f 18/8/7 19/9/7 17/10/7
f 18/8/7 20/11/7 19/9/7
f 22/10/8 23/12/8 21/13/8
f 22/10/8 24/9/8 23/12/8
f 18/14/3 22/15/3 21/16/3
f 18/14/3 17/13/3 22/15/3
f 19/12/4 23/17/4 24/18/4
f 19/12/4 20/19/4 23/17/4
f 17/13/9 24/18/9 22/15/9
f 17/13/9 19/12/9 24/18/9
f 21/15/10 20/20/10 18/21/10
f 21/15/10 23/18/10 20/20/10

v -0.09055694192648 0.26986029744148 0.3473727107048
v -0.26733362674713 0.26986029744148 0.5241494178772
v -0.09055694192648 0.20736031234264 0.3473727107048
v -0.26733362674713 0.20736031234264 0.5241494178772
v -0.44411033391953 0.26986029744148 0.3473727107048
v -0.26733362674713 0.26986029744148 0.17059601843357
v -0.44411033391953 0.20736031234264 0.3473727107048
v -0.26733362674713 0.20736031234264 0.17059601843357
# 8 vertices

# 0 normal

vt 0.6328125 0.2109375 0
vt 0.6015625 0.203125 0
vt 0.6015625 0.2109375 0
vt 0.6328125 0.203125 0
vt 0.5703125 0.203125 0
vt 0.5703125 0.2109375 0
vt 0.5703125 0.2421875 0
vt 0.5390625 0.2109375 0
vt 0.5390625 0.2421875 0
vt 0.5390625 0.171875 0
vt 0.5390625 0.203125 0
vt 0.5703125 0.171875 0
vt 0.5078125 0.203125 0
vt 0.5078125 0.2109375 0
# 14 texture coordinates

o cube_1
usemtl 0
f 26/22/7 27/23/7 25/24/7
f 26/22/7 28/25/7 27/23/7
f 30/24/8 31/26/8 29/27/8
f 30/24/8 32/23/8 31/26/8
f 26/28/3 30/29/3 29/30/3
f 26/28/3 25/27/3 30/29/3
f 27/26/4 31/31/4 32/32/4
f 27/26/4 28/33/4 31/31/4
f 25/27/9 32/32/9 30/29/9
f 25/27/9 27/26/9 32/32/9
f 29/29/10 28/34/10 26/35/10
f 29/29/10 31/32/10 28/34/10

v -0.134751111269 0.39486029744148 0.27311840653419
v -0.26733362674713 0.39486029744148 0.40570092201233
v -0.134751111269 -0.35513970255852 0.27311840653419
v -0.26733362674713 -0.35513970255852 0.40570092201233
v -0.39991614222527 0.39486029744148 0.27311840653419
v -0.26733362674713 0.39486029744148 0.1405358761549
v -0.39991614222527 -0.35513970255852 0.27311840653419
v -0.26733362674713 -0.35513970255852 0.1405358761549
# 8 vertices

# 0 normal

vt 0.734375 0.21875 0
vt 0.7109375 0.125 0
vt 0.7109375 0.21875 0
vt 0.734375 0.125 0
vt 0.6875 0.125 0
vt 0.6875 0.21875 0
vt 0.6875 0.2421875 0
vt 0.6640625 0.21875 0
vt 0.6640625 0.2421875 0
vt 0.6640625 0.1015625 0
vt 0.6640625 0.125 0
vt 0.6875 0.1015625 0
vt 0.640625 0.125 0
vt 0.640625 0.21875 0
# 14 texture coordinates

o cube_2
usemtl 0
f 34/36/7 35/37/7 33/38/7
f 34/36/7 36/39/7 35/37/7
f 38/38/8 39/40/8 37/41/8
f 38/38/8 40/37/8 39/40/8
f 34/42/3 38/43/3 37/44/3
f 34/42/3 33/41/3 38/43/3
f 35/40/4 39/45/4 40/46/4
f 35/40/4 36/47/4 39/45/4
f 33/41/9 40/46/9 38/43/9
f 33/41/9 35/40/9 40/46/9
f 37/43/10 36/48/10 34/49/10
f 37/43/10 39/46/10 36/48/10

v -0.134751111269 0.39486029744148 -0.2776272892952
v -0.26733362674713 0.39486029744148 -0.1450447589159
v -0.134751111269 -0.35513970255852 -0.2776272892952
v -0.26733362674713 -0.35513970255852 -0.1450447589159
v -0.39991614222527 0.39486029744148 -0.2776272892952
v -0.26733362674713 0.39486029744148 -0.41020980477333
v -0.39991614222527 -0.35513970255852 -0.2776272892952
v -0.26733362674713 -0.35513970255852 -0.41020980477333
# 8 vertices

# 0 normal

vt 0.984375 0.21875 0
vt 0.9609375 0.125 0
vt 0.9609375 0.21875 0
vt 0.984375 0.125 0
vt 0.9375 0.125 0
vt 0.9375 0.21875 0
vt 0.9375 0.2421875 0
vt 0.9140625 0.21875 0
vt 0.9140625 0.2421875 0
vt 0.9140625 0.1015625 0
vt 0.9140625 0.125 0
vt 0.9375 0.1015625 0
vt 0.890625 0.125 0
vt 0.890625 0.21875 0
# 14 texture coordinates

o cube_3
usemtl 0
f 42/50/7 43/51/7 41/52/7
f 42/50/7 44/53/7 43/51/7
f 46/52/8 47/54/8 45/55/8
f 46/52/8 48/51/8 47/54/8
f 42/56/3 46/57/3 45/58/3
f 42/56/3 41/55/3 46/57/3
f 43/54/4 47/59/4 48/60/4
f 43/54/4 44/61/4 47/59/4
f 41/55/9 48/60/9 46/57/9
f 41/55/9 43/54/9 48/60/9
f 45/57/10 44/62/10 42/63/10
f 45/57/10 47/60/10 44/62/10

v -0.09055694192648 0.26986029744148 -0.2776272892952
v -0.26733362674713 0.26986029744148 -0.1008505821228
v -0.09055694192648 0.20736031234264 -0.2776272892952
v -0.26733362674713 0.20736031234264 -0.1008505821228
v -0.44411033391953 0.26986029744148 -0.2776272892952
v -0.26733362674713 0.26986029744148 -0.45440396666527
v -0.44411033391953 0.20736031234264 -0.2776272892952
v -0.26733362674713 0.20736031234264 -0.45440396666527
# 8 vertices

# 0 normal

vt 0.8828125 0.2109375 0
vt 0.8515625 0.203125 0
vt 0.8515625 0.2109375 0
vt 0.8828125 0.203125 0
vt 0.8515625 0.25 0
vt 0.8203125 0.2421875 0
vt 0.8203125 0.25 0
vt 0.8515625 0.2421875 0
vt 0.7890625 0.2109375 0
vt 0.7890625 0.2421875 0
vt 0.8203125 0.2109375 0
vt 0.8203125 0.203125 0
vt 0.7890625 0.171875 0
vt 0.7890625 0.203125 0
vt 0.8203125 0.171875 0
vt 0.7578125 0.203125 0
vt 0.7578125 0.2109375 0
# 17 texture coordinates

o cube_4
usemtl 0
f 50/64/7 51/65/7 49/66/7
f 50/64/7 52/67/7 51/65/7
f 54/68/8 55/69/8 53/70/8
f 54/68/8 56/71/8 55/69/8
f 50/69/3 54/72/3 53/73/3
f 50/69/3 49/74/3 54/72/3
f 51/75/4 55/76/4 56/77/4
f 51/75/4 52/78/4 55/76/4
f 49/74/9 56/77/9 54/72/9
f 49/74/9 51/75/9 56/77/9
f 53/72/10 52/79/10 50/80/10
f 53/72/10 55/77/10 52/79/10

v -0.04636276513338 -0.41763970255852 -0.2776272892952
v -0.26733362674713 -0.41763970255852 -0.05665640905499
v -0.04636276513338 -0.5426396727562 -0.2776272892952
v -0.26733362674713 -0.5426396727562 -0.05665640905499
v -0.48830449581146 -0.41763970255852 -0.2776272892952
v -0.26733362674713 -0.41763970255852 -0.49859815835953
v -0.48830449581146 -0.5426396727562 -0.2776272892952
v -0.26733362674713 -0.5426396727562 -0.49859815835953
# 8 vertices

# 0 normal

vt 0.921875 0.09375 0
vt 0.8828125 0.078125 0
vt 0.8828125 0.09375 0
vt 0.921875 0.078125 0
vt 0.84375 0.078125 0
vt 0.84375 0.09375 0
vt 0.84375 0.1328125 0
vt 0.8046875 0.09375 0
vt 0.8046875 0.1328125 0
vt 0.8046875 0.0390625 0
vt 0.8046875 0.078125 0
vt 0.84375 0.0390625 0
vt 0.765625 0.078125 0
vt 0.765625 0.09375 0
# 14 texture coordinates

o cube_5
usemtl 0
f 58/81/7 59/82/7 57/83/7
f 58/81/7 60/84/7 59/82/7
f 62/83/8 63/85/8 61/86/8
f 62/83/8 64/82/8 63/85/8
f 58/87/3 62/88/3 61/89/3
f 58/87/3 57/86/3 62/88/3
f 59/85/4 63/90/4 64/91/4
f 59/85/4 60/92/4 63/90/4
f 57/86/9 64/91/9 62/88/9
f 57/86/9 59/85/9 64/91/9
f 61/88/10 60/93/10 58/94/10
f 61/88/10 63/91/10 60/93/10

v 0.49412402510643 -0.41763970255852 -0.2776272892952
v 0.2731531560421 -0.41763970255852 -0.05665640905499
v 0.49412402510643 -0.5426396727562 -0.2776272892952
v 0.2731531560421 -0.5426396727562 -0.05665640905499
v 0.05218227952719 -0.41763970255852 -0.2776272892952
v 0.2731531560421 -0.41763970255852 -0.49859815835953
v 0.05218227952719 -0.5426396727562 -0.2776272892952
v 0.2731531560421 -0.5426396727562 -0.49859815835953
# 8 vertices

# 0 normal

vt 0.421875 0.09375 0
vt 0.3828125 0.078125 0
vt 0.3828125 0.09375 0
vt 0.421875 0.078125 0
vt 0.34375 0.078125 0
vt 0.34375 0.09375 0
vt 0.34375 0.1328125 0
vt 0.3046875 0.09375 0
vt 0.3046875 0.1328125 0
vt 0.3046875 0.0390625 0
vt 0.3046875 0.078125 0
vt 0.34375 0.0390625 0
vt 0.265625 0.078125 0
vt 0.265625 0.09375 0
# 14 texture coordinates

o cube_6
usemtl 0
f 66/95/7 67/96/7 65/97/7
f 66/95/7 68/98/7 67/96/7
f 70/97/8 71/99/8 69/100/8
f 70/97/8 72/96/8 71/99/8
f 66/101/3 70/102/3 69/103/3
f 66/101/3 65/100/3 70/102/3
f 67/99/4 71/104/4 72/105/4
f 67/99/4 68/106/4 71/104/4
f 65/100/9 72/105/9 70/102/9
f 65/100/9 67/99/9 72/105/9
f 69/102/10 68/107/10 66/108/10
f 69/102/10 71/105/10 68/107/10

v 0.40573567152023 0.39486029744148 -0.2776272892952
v 0.2731531560421 0.39486029744148 -0.1450447589159
v 0.40573567152023 -0.35513970255852 -0.2776272892952
v 0.2731531560421 -0.35513970255852 -0.1450447589159
v 0.1405706256628 0.39486029744148 -0.2776272892952
v 0.2731531560421 0.39486029744148 -0.41020980477333
v 0.1405706256628 -0.35513970255852 -0.2776272892952
v 0.2731531560421 -0.35513970255852 -0.41020980477333
# 8 vertices

# 0 normal

vt 0.484375 0.21875 0
vt 0.4609375 0.125 0
vt 0.4609375 0.21875 0
vt 0.484375 0.125 0
vt 0.4375 0.125 0
vt 0.4375 0.21875 0
vt 0.4375 0.2421875 0
vt 0.4140625 0.21875 0
vt 0.4140625 0.2421875 0
vt 0.4140625 0.1015625 0
vt 0.4140625 0.125 0
vt 0.4375 0.1015625 0
vt 0.390625 0.125 0
vt 0.390625 0.21875 0
# 14 texture coordinates

o cube_7
usemtl 0
f 74/109/7 75/110/7 73/111/7
f 74/109/7 76/112/7 75/110/7
f 78/111/8 79/113/8 77/114/8
f 78/111/8 80/110/8 79/113/8
f 74/115/3 78/116/3 77/117/3
f 74/115/3 73/114/3 78/116/3
f 75/113/4 79/118/4 80/119/4
f 75/113/4 76/120/4 79/118/4
f 73/114/9 80/119/9 78/116/9
f 73/114/9 75/113/9 80/119/9
f 77/116/10 76/121/10 74/122/10
f 77/116/10 79/119/10 76/121/10

v 0.44992983341217 0.26986029744148 -0.2776272892952
v 0.2731531560421 0.26986029744148 -0.1008505821228
v 0.44992983341217 0.20736031234264 -0.2776272892952
v 0.2731531560421 0.20736031234264 -0.1008505821228
v 0.09637645632029 0.26986029744148 -0.2776272892952
v 0.2731531560421 0.26986029744148 -0.45440396666527
v 0.09637645632029 0.20736031234264 -0.2776272892952
v 0.2731531560421 0.20736031234264 -0.45440396666527
# 8 vertices

# 0 normal

vt 0.3828125 0.2109375 0
vt 0.3515625 0.203125 0
vt 0.3515625 0.2109375 0
vt 0.3828125 0.203125 0
vt 0.3203125 0.203125 0
vt 0.3203125 0.2109375 0
vt 0.3203125 0.2421875 0
vt 0.2890625 0.2109375 0
vt 0.2890625 0.2421875 0
vt 0.2890625 0.171875 0
vt 0.2890625 0.203125 0
vt 0.3203125 0.171875 0
vt 0.2578125 0.203125 0
vt 0.2578125 0.2109375 0
# 14 texture coordinates

o cube_8
usemtl 0
f 82/123/7 83/124/7 81/125/7
f 82/123/7 84/126/7 83/124/7
f 86/125/8 87/127/8 85/128/8
f 86/125/8 88/124/8 87/127/8
f 82/129/3 86/130/3 85/131/3
f 82/129/3 81/128/3 86/130/3
f 83/127/4 87/132/4 88/133/4
f 83/127/4 84/134/4 87/132/4
f 81/128/9 88/133/9 86/130/9
f 81/128/9 83/127/9 88/133/9
f 85/130/10 84/135/10 82/136/10
f 85/130/10 87/133/10 84/135/10

v 0.49412402510643 -0.41763970255852 0.27311840653419
v 0.2731531560421 -0.41763970255852 0.49408927559853
v 0.49412402510643 -0.5426396727562 0.27311840653419
v 0.2731531560421 -0.5426396727562 0.49408927559853
v 0.05218227952719 -0.41763970255852 0.27311840653419
v 0.2731531560421 -0.41763970255852 0.05214752629399
v 0.05218227952719 -0.5426396727562 0.27311840653419
v 0.2731531560421 -0.5426396727562 0.05214752629399
# 8 vertices

# 0 normal

vt 0.171875 0.09375 0
vt 0.1328125 0.078125 0
vt 0.1328125 0.09375 0
vt 0.171875 0.078125 0
vt 0.09375 0.078125 0
vt 0.09375 0.09375 0
vt 0.09375 0.1328125 0
vt 0.0546875 0.09375 0
vt 0.0546875 0.1328125 0
vt 0.0546875 0.0390625 0
vt 0.0546875 0.078125 0
vt 0.09375 0.0390625 0
vt 0.015625 0.078125 0
vt 0.015625 0.09375 0
# 14 texture coordinates

o cube_9
usemtl 0
f 90/137/7 91/138/7 89/139/7
f 90/137/7 92/140/7 91/138/7
f 94/139/8 95/141/8 93/142/8
f 94/139/8 96/138/8 95/141/8
f 90/143/3 94/144/3 93/145/3
f 90/143/3 89/142/3 94/144/3
f 91/141/4 95/146/4 96/147/4
f 91/141/4 92/148/4 95/146/4
f 89/142/9 96/147/9 94/144/9
f 89/142/9 91/141/9 96/147/9
f 93/144/10 92/149/10 90/150/10
f 93/144/10 95/147/10 92/149/10

v 0.44992983341217 -0.35513970255852 0.27311840653419
v 0.2731531560421 -0.35513970255852 0.44989508390427
v 0.44992983341217 -0.41763970255852 0.27311840653419
v 0.2731531560421 -0.41763970255852 0.44989508390427
v 0.09637645632029 -0.35513970255852 0.27311840653419
v 0.2731531560421 -0.35513970255852 0.0963416993618
v 0.09637645632029 -0.41763970255852 0.27311840653419
v 0.2731531560421 -0.41763970255852 0.0963416993618
# 8 vertices

# 0 normal

vt 0.1328125 0.2109375 0
vt 0.1015625 0.203125 0
vt 0.1015625 0.2109375 0
vt 0.1328125 0.203125 0
vt 0.0703125 0.203125 0
vt 0.0703125 0.2109375 0
vt 0.0703125 0.2421875 0
vt 0.0390625 0.2109375 0
vt 0.0390625 0.2421875 0
vt 0.0390625 0.171875 0
vt 0.0390625 0.203125 0
vt 0.0703125 0.171875 0
vt 0.0078125 0.203125 0
vt 0.0078125 0.2109375 0
# 14 texture coordinates

o cube_10
usemtl 0
f 98/151/7 99/152/7 97/153/7
f 98/151/7 100/154/7 99/152/7
f 102/153/8 103/155/8 101/156/8
f 102/153/8 104/152/8 103/155/8
f 98/157/3 102/158/3 101/159/3
f 98/157/3 97/156/3 102/158/3
f 99/155/4 103/160/4 104/161/4
f 99/155/4 100/162/4 103/160/4
f 97/156/9 104/161/9 102/158/9
f 97/156/9 99/155/9 104/161/9
f 101/158/10 100/163/10 98/164/10
f 101/158/10 103/161/10 100/163/10

v 0.40573567152023 0.39486029744148 0.27311840653419
v 0.2731531560421 0.39486029744148 0.40570092201233
v 0.40573567152023 -0.35513970255852 0.27311840653419
v 0.2731531560421 -0.35513970255852 0.40570092201233
v 0.1405706256628 0.39486029744148 0.27311840653419
v 0.2731531560421 0.39486029744148 0.1405358761549
v 0.1405706256628 -0.35513970255852 0.27311840653419
v 0.2731531560421 -0.35513970255852 0.1405358761549
# 8 vertices

# 0 normal

vt 0.234375 0.21875 0
vt 0.2109375 0.125 0
vt 0.2109375 0.21875 0
vt 0.234375 0.125 0
vt 0.1875 0.125 0
vt 0.1875 0.21875 0
vt 0.1875 0.2421875 0
vt 0.1640625 0.21875 0
vt 0.1640625 0.2421875 0
vt 0.1640625 0.1015625 0
vt 0.1640625 0.125 0
vt 0.1875 0.1015625 0
vt 0.140625 0.125 0
vt 0.140625 0.21875 0
# 14 texture coordinates

o cube_11
usemtl 0
f 106/165/7 107/166/7 105/167/7
f 106/165/7 108/168/7 107/166/7
f 110/167/8 111/169/8 109/170/8
f 110/167/8 112/166/8 111/169/8
f 106/171/3 110/172/3 109/173/3
f 106/171/3 105/170/3 110/172/3
f 107/169/4 111/174/4 112/175/4
f 107/169/4 108/176/4 111/174/4
f 105/170/9 112/175/9 110/172/9
f 105/170/9 107/169/9 112/175/9
f 109/172/10 108/177/10 106/178/10
f 109/172/10 111/175/10 108/177/10

v 0.44992983341217 0.26986029744148 0.3473727107048
v 0.2731531560421 0.26986029744148 0.5241494178772
v 0.44992983341217 0.20736031234264 0.3473727107048
v 0.2731531560421 0.20736031234264 0.5241494178772
v 0.09637645632029 0.26986029744148 0.3473727107048
v 0.2731531560421 0.26986029744148 0.17059601843357
v 0.09637645632029 0.20736031234264 0.3473727107048
v 0.2731531560421 0.20736031234264 0.17059601843357
# 8 vertices

# 0 normal

# 0 texture coordinate

o cube_12
usemtl 0
f 114/151/7 115/152/7 113/153/7
f 114/151/7 116/154/7 115/152/7
f 118/153/8 119/155/8 117/156/8
f 118/153/8 120/152/8 119/155/8
f 114/157/3 118/158/3 117/159/3
f 114/157/3 113/156/3 118/158/3
f 115/155/4 119/160/4 120/161/4
f 115/155/4 116/162/4 119/160/4
f 113/156/9 120/161/9 118/158/9
f 113/156/9 115/155/9 120/161/9
f 117/158/10 116/163/10 114/164/10
f 117/158/10 119/161/10 116/163/10

v 0.44763016700745 0.45736029744148 -0.3994864821434
v 0.44763016700745 0.45736029744148 0.4755135178566
v 0.44763016700745 0.39486029744148 -0.3994864821434
v 0.44763016700745 0.39486029744148 0.4755135178566
v -0.48986983299255 0.45736029744148 0.4755135178566
v -0.48986983299255 0.45736029744148 -0.3994864821434
v -0.48986983299255 0.39486029744148 0.4755135178566
v -0.48986983299255 0.39486029744148 -0.3994864821434
# 8 vertices

vn 1 0 0
vn -1 0 0
vn 0 0 -1
vn 0 0 1
# 4 normals

vt 0.7578125 0.3984375 0
vt 0.6484375 0.390625 0
vt 0.6484375 0.3984375 0
vt 0.7578125 0.390625 0
vt 0.1328125 0.3984375 0
vt 0.0234375 0.390625 0
vt 0.0234375 0.3984375 0
vt 0.1328125 0.390625 0
vt 0.375 0.3828125 0
vt 0.140625 0.2734375 0
vt 0.140625 0.3828125 0
vt 0.375 0.2734375 0
vt 0.375 0.390625 0
vt 0.140625 0.390625 0
# 14 texture coordinates

o cube_13
usemtl 0
f 122/179/11 123/180/11 121/181/11
f 122/179/11 124/182/11 123/180/11
f 126/183/12 127/184/12 125/185/12
f 126/183/12 128/186/12 127/184/12
f 122/187/3 126/188/3 125/189/3
f 122/187/3 121/190/3 126/188/3
f 123/187/4 127/188/4 128/189/4
f 123/187/4 124/190/4 127/188/4
f 121/191/13 128/189/13 126/192/13
f 121/191/13 123/187/13 128/189/13
f 125/191/14 124/189/14 122/192/14
f 125/191/14 127/187/14 124/189/14

v 0.47888016700745 0.5198603272438 -0.4619864821434
v 0.47888016700745 0.5198603272438 0.5380135178566
v 0.47888016700745 0.45736029744148 -0.4619864821434
v 0.47888016700745 0.45736029744148 0.5380135178566
v -0.52111983299255 0.5198603272438 0.5380135178566
v -0.52111983299255 0.5198603272438 -0.4619864821434
v -0.52111983299255 0.45736029744148 0.5380135178566
v -0.52111983299255 0.45736029744148 -0.4619864821434
# 8 vertices

# 0 normal

vt 0.6328125 0.390625 0
vt 0.6328125 0.3984375 0
vt 0.0078125 0.390625 0
vt 0.0078125 0.3984375 0
vt 0.3828125 0.5234375 0
vt 0.1328125 0.5234375 0
vt 0.3828125 0.3984375 0
vt 0.3828125 0.390625 0
vt 0.1328125 0.265625 0
vt 0.3828125 0.265625 0
# 10 texture coordinates

o cube_14
usemtl 0
f 130/179/11 131/193/11 129/194/11
f 130/179/11 132/182/11 131/193/11
f 134/183/12 135/195/12 133/196/12
f 134/183/12 136/186/12 135/195/12
f 130/197/3 134/183/3 133/198/3
f 130/197/3 129/199/3 134/183/3
f 131/200/4 135/201/4 136/186/4
f 131/200/4 132/202/4 135/201/4
f 129/194/13 136/200/13 134/199/13
f 129/194/13 131/193/13 136/200/13
f 133/199/14 132/186/14 130/183/14
f 133/199/14 135/200/14 132/186/14

v 0.47957271337509 0.45736029744148 -0.46204900741577
v 0.47957271337509 0.45736029744148 -0.4619864821434
v 0.47957271337509 -0.10513968765736 -0.46204900741577
v 0.47957271337509 -0.10513968765736 -0.4619864821434
v -0.52042728662491 0.45736029744148 -0.4619864821434
v -0.52042728662491 0.45736029744148 -0.46204900741577
v -0.52042728662491 -0.10513968765736 -0.4619864821434
v -0.52042728662491 -0.10513968765736 -0.46204900741577
# 8 vertices

# 0 normal

# 0 texture coordinate

o cube_15_1
usemtl 0
f 138/1/11 139/2/11 137/1/11
f 138/1/11 140/2/11 139/2/11
f 142/2/12 143/1/12 141/2/12
f 142/2/12 144/1/12 143/1/12
f 138/2/3 142/3/3 141/3/3
f 138/2/3 137/2/3 142/3/3
f 139/3/4 143/2/4 144/2/4
f 139/3/4 140/3/4 143/2/4
f 137/4/13 144/5/13 142/6/13
f 137/4/13 139/7/13 144/5/13
f 141/6/14 140/7/14 138/4/14
f 141/6/14 143/5/14 140/7/14

v 0.47868472337723 0.45736029744148 0.53795099258423
v 0.47868472337723 0.45736029744148 0.5380135178566
v 0.47868472337723 -0.10513968765736 0.53795099258423
v 0.47868472337723 -0.10513968765736 0.5380135178566
v -0.52131527662277 0.45736029744148 0.5380135178566
v -0.52131527662277 0.45736029744148 0.53795099258423
v -0.52131527662277 -0.10513968765736 0.5380135178566
v -0.52131527662277 -0.10513968765736 0.53795099258423
# 8 vertices

# 0 normal

vt 0.4765625 0.71875 0
vt 0.7265625 0.6484375 0
vt 0.7265625 0.71875 0
vt 0.4765625 0.6484375 0
# 4 texture coordinates

o cube_16
usemtl 0
f 146/2/11 147/1/11 145/2/11
f 146/2/11 148/1/11 147/1/11
f 150/1/12 151/2/12 149/1/12
f 150/1/12 152/2/12 151/2/12
f 146/3/3 150/2/3 149/2/3
f 146/3/3 145/3/3 150/2/3
f 147/2/4 151/3/4 152/3/4
f 147/2/4 148/2/4 151/3/4
f 145/203/13 152/204/13 150/205/13
f 145/203/13 147/206/13 152/204/13
f 149/205/14 148/206/14 146/203/14
f 149/205/14 151/204/14 148/206/14

v 0.44992983341217 -0.35513970255852 -0.2776272892952
v 0.2731531560421 -0.35513970255852 -0.1008505821228
v 0.44992983341217 -0.41763970255852 -0.2776272892952
v 0.2731531560421 -0.41763970255852 -0.1008505821228
v 0.09637645632029 -0.35513970255852 -0.2776272892952
v 0.2731531560421 -0.35513970255852 -0.45440396666527
v 0.09637645632029 -0.41763970255852 -0.2776272892952
v 0.2731531560421 -0.41763970255852 -0.45440396666527
# 8 vertices

# 0 normal

# 0 texture coordinate

o cube_67
usemtl 0
f 154/123/7 155/124/7 153/125/7
f 154/123/7 156/126/7 155/124/7
f 158/125/8 159/127/8 157/128/8
f 158/125/8 160/124/8 159/127/8
f 154/129/3 158/130/3 157/131/3
f 154/129/3 153/128/3 158/130/3
f 155/127/4 159/132/4 160/133/4
f 155/127/4 156/134/4 159/132/4
f 153/128/9 160/133/9 158/130/9
f 153/128/9 155/127/9 160/133/9
f 157/130/10 156/135/10 154/136/10
f 157/130/10 159/133/10 156/135/10

v -0.09055694192648 -0.35513970255852 0.27311840653419
v -0.26733362674713 -0.35513970255852 0.44989508390427
v -0.09055694192648 -0.41763970255852 0.27311840653419
v -0.26733362674713 -0.41763970255852 0.44989508390427
v -0.44411033391953 -0.35513970255852 0.27311840653419
v -0.26733362674713 -0.35513970255852 0.0963416993618
v -0.44411033391953 -0.41763970255852 0.27311840653419
v -0.26733362674713 -0.41763970255852 0.0963416993618
# 8 vertices

# 0 normal

# 0 texture coordinate

o cube_68
usemtl 0
f 162/22/7 163/23/7 161/24/7
f 162/22/7 164/25/7 163/23/7
f 166/24/8 167/26/8 165/27/8
f 166/24/8 168/23/8 167/26/8
f 162/28/3 166/29/3 165/30/3
f 162/28/3 161/27/3 166/29/3
f 163/26/4 167/31/4 168/32/4
f 163/26/4 164/33/4 167/31/4
f 161/27/9 168/32/9 166/29/9
f 161/27/9 163/26/9 168/32/9
f 165/29/10 164/34/10 162/35/10
f 165/29/10 167/32/10 164/34/10

v -0.09055694192648 -0.35513970255852 -0.2776272892952
v -0.26733362674713 -0.35513970255852 -0.1008505821228
v -0.09055694192648 -0.41763970255852 -0.2776272892952
v -0.26733362674713 -0.41763970255852 -0.1008505821228
v -0.44411033391953 -0.35513970255852 -0.2776272892952
v -0.26733362674713 -0.35513970255852 -0.45440396666527
v -0.44411033391953 -0.41763970255852 -0.2776272892952
v -0.26733362674713 -0.41763970255852 -0.45440396666527
# 8 vertices

# 0 normal

# 0 texture coordinate

o cube_69
usemtl 0
f 170/64/7 171/65/7 169/66/7
f 170/64/7 172/67/7 171/65/7
f 174/66/8 175/75/8 173/74/8
f 174/66/8 176/65/8 175/75/8
f 170/69/3 174/72/3 173/73/3
f 170/69/3 169/74/3 174/72/3
f 171/75/4 175/76/4 176/77/4
f 171/75/4 172/78/4 175/76/4
f 169/74/9 176/77/9 174/72/9
f 169/74/9 171/75/9 176/77/9
f 173/72/10 172/79/10 170/80/10
f 173/72/10 175/77/10 172/79/10

